<svg xmlns="http://www.w3.org/2000/svg" viewBox="0 0 980 641" role="img" aria-labelledby="title desc">
<title id="title">C1-E17 — The change of variables exposes the beta integral that fixes the numerical coefficient.</title>
<desc id="desc">x ∈ [0,1]; q = x³; dx = q⁻²ᐟ³dq/3; Ct = 0.914681…; B(a,b); a = 5/6; b = 1/2; The coefficient comes from the complete radius trajectory, not a material fit</desc>
<defs><marker id="arrow" markerWidth="8" markerHeight="8" refX="7" refY="4" orient="auto-start-reverse"><path d="M0 0 L8 4 L0 8Z" fill="#8edbd4"/></marker></defs>
<rect width="980" height="641" rx="8" fill="#142632"/>
<style>text{font-family:Arial,"Microsoft YaHei",sans-serif;fill:#e7f0f3;font-size:20px}.muted{fill:#b4c7d2;font-size:17px}.accent{fill:#8edbd4}.line{fill:none;stroke:#8edbd4;stroke-width:3}.thin{fill:none;stroke:#b4c7d2;stroke-width:2}.arrow{fill:none;stroke:#8edbd4;stroke-width:3;marker-end:url(#arrow)}.area{fill:#213e4b;stroke:#b4c7d2;stroke-width:2}</style>
<text x="28" y="36" class="accent">C1-E17 · Physical variable map / 物理变量图</text>
<circle cx="197" cy="184" r="83" class="area"/>
<circle cx="426" cy="184" r="37" class="area"/>
<path d="M285 184 H377" class="arrow"/>
<text x="120" y="294" class="">Rmax , Ṙ(0) = 0</text>
<text x="386" y="264" class="">R ↓</text>
<path d="M638 288 H923" class="arrow"/>
<path d="M660 291 V94" class="arrow"/>
<path d="M665 118 C778 120 857 143 904 282" class="line"/>
<text x="683" y="96" class="">R / Rmax</text>
<text x="843" y="315" class="">t / tc</text>
<text x="584" y="336" class="muted">Formal collapse / 形式塌缩</text>
<path d="M28 356 H952" stroke="#405967"/>
<text x="30" y="382" class="muted">Variables in this equation / 本式变量</text>
<text x="30" y="409" class="muted">• x ∈ [0,1]</text>
<text x="30" y="433" class="muted">• q = x³</text>
<text x="30" y="457" class="muted">• dx = q⁻²ᐟ³dq/3</text>
<text x="30" y="481" class="muted">• Ct = 0.914681…</text>
<text x="30" y="505" class="muted">• B(a,b)</text>
<text x="30" y="529" class="muted">• a = 5/6</text>
<text x="30" y="553" class="muted">• b = 1/2</text>
<text x="30" y="595" class="muted">The coefficient comes from the complete radius trajectory, not a material fit</text>
</svg>
