<svg xmlns="http://www.w3.org/2000/svg" viewBox="0 0 980 664" role="img" aria-labelledby="title desc">
<title id="title">C2-E18 — The compound ledger survives expansion, condensation, dissolution, and venting.</title>
<desc id="desc">a₀, ρ_d: original liquid core; m_PFC,0: fixed initial inventory; m_l: liquid remainder; m_v: bubble vapor; m_diss: carrier dissolution; m_esc: mass crossing outer boundary; π: initial sphere geometry; Mass can change compartment without being created; Once venting begins, in-domain mass can decrease</desc>
<defs><marker id="arrow" markerWidth="8" markerHeight="8" refX="7" refY="4" orient="auto-start-reverse"><path d="M0 0 L8 4 L0 8Z" fill="#8edbd4"/></marker></defs>
<rect width="980" height="664" rx="8" fill="#142632"/>
<style>text{font-family:Arial,"Microsoft YaHei",sans-serif;fill:#e7f0f3;font-size:20px}.muted{fill:#b4c7d2;font-size:17px}.accent{fill:#8edbd4}.line{fill:none;stroke:#8edbd4;stroke-width:3}.thin{fill:none;stroke:#b4c7d2;stroke-width:2}.arrow{fill:none;stroke:#8edbd4;stroke-width:3;marker-end:url(#arrow)}.area{fill:#213e4b;stroke:#b4c7d2;stroke-width:2}</style>
<text x="28" y="36" class="accent">C2-E18 · Physical variable map / 物理变量图</text>
<circle cx="310" cy="185" r="78" class="area"/>
<path d="M310 185 H388" class="arrow"/>
<text x="337" y="169" class="">R(t)</text>
<path d="M310 185 L457 263" class="arrow"/>
<text x="398" y="226" class="">r ≥ R</text>
<text x="277" y="193" class="">pb</text>
<text x="610" y="166" class="">p∞ , ρ , μ , σ</text>
<text x="610" y="194" class="">Surrounding medium / 周围介质</text>
<path d="M310 78 L310 54" class="arrow"/>
<path d="M201 185 L167 185" class="arrow"/>
<path d="M419 185 L459 185" class="arrow"/>
<text x="100" y="312" class="">Signed wall motion / 有符号壁运动: Ṙ, R̈</text>
<text x="129" y="75" class="muted">+r direction / +r 方向</text>
<circle cx="295" cy="195" r="27" class="area"/>
<text x="590" y="244" class="muted">Liquid ↔ vapor / 液体 ↔ 蒸气</text>
<text x="590" y="271" class="">ml , mv , j , Q̇ , Tb</text>
<path d="M28 356 H952" stroke="#405967"/>
<text x="30" y="382" class="muted">Variables in this equation / 本式变量</text>
<text x="30" y="409" class="muted">• a₀, ρ_d: original liquid core</text>
<text x="30" y="433" class="muted">• m_PFC,0: fixed initial inventory</text>
<text x="30" y="457" class="muted">• m_l: liquid remainder</text>
<text x="30" y="481" class="muted">• m_v: bubble vapor</text>
<text x="30" y="505" class="muted">• m_diss: carrier dissolution</text>
<text x="30" y="529" class="muted">• m_esc: mass crossing outer boundary</text>
<text x="30" y="553" class="muted">• π: initial sphere geometry</text>
<text x="30" y="595" class="muted">Mass can change compartment without being created</text>
<text x="30" y="618" class="muted">Once venting begins, in-domain mass can decrease</text>
</svg>
