<svg xmlns="http://www.w3.org/2000/svg" viewBox="0 0 980 640" role="img" aria-labelledby="title desc">
<title id="title">C2-E19 — A bubble surface and a PFC evaporation surface need not be identical.</title>
<desc id="desc">Γ_s: actual species interface; j_s: liquid → vapor; m_v,s, ṁ_v,s: vapor inventory and rate; R: complete bubble radius only when applicable; dA: contacted surface patch; π: full-sphere special case; PFC may occupy only a residual inclusion; Do not give every species the whole bubble area automatically</desc>
<defs><marker id="arrow" markerWidth="8" markerHeight="8" refX="7" refY="4" orient="auto-start-reverse"><path d="M0 0 L8 4 L0 8Z" fill="#8edbd4"/></marker></defs>
<rect width="980" height="640" rx="8" fill="#142632"/>
<style>text{font-family:Arial,"Microsoft YaHei",sans-serif;fill:#e7f0f3;font-size:20px}.muted{fill:#b4c7d2;font-size:17px}.accent{fill:#8edbd4}.line{fill:none;stroke:#8edbd4;stroke-width:3}.thin{fill:none;stroke:#b4c7d2;stroke-width:2}.arrow{fill:none;stroke:#8edbd4;stroke-width:3;marker-end:url(#arrow)}.area{fill:#213e4b;stroke:#b4c7d2;stroke-width:2}</style>
<text x="28" y="36" class="accent">C2-E19 · Physical variable map / 物理变量图</text>
<circle cx="310" cy="185" r="78" class="area"/>
<path d="M310 185 H388" class="arrow"/>
<text x="337" y="169" class="">R(t)</text>
<path d="M310 185 L457 263" class="arrow"/>
<text x="398" y="226" class="">r ≥ R</text>
<text x="277" y="193" class="">pb</text>
<text x="610" y="166" class="">p∞ , ρ , μ , σ</text>
<text x="610" y="194" class="">Surrounding medium / 周围介质</text>
<path d="M310 78 L310 54" class="arrow"/>
<path d="M201 185 L167 185" class="arrow"/>
<path d="M419 185 L459 185" class="arrow"/>
<text x="100" y="312" class="">Signed wall motion / 有符号壁运动: Ṙ, R̈</text>
<text x="129" y="75" class="muted">+r direction / +r 方向</text>
<circle cx="295" cy="195" r="27" class="area"/>
<text x="590" y="244" class="muted">Liquid ↔ vapor / 液体 ↔ 蒸气</text>
<text x="590" y="271" class="">ml , mv , j , Q̇ , Tb</text>
<path d="M28 356 H952" stroke="#405967"/>
<text x="30" y="382" class="muted">Variables in this equation / 本式变量</text>
<text x="30" y="409" class="muted">• Γ_s: actual species interface</text>
<text x="30" y="433" class="muted">• j_s: liquid → vapor</text>
<text x="30" y="457" class="muted">• m_v,s, ṁ_v,s: vapor inventory and rate</text>
<text x="30" y="481" class="muted">• R: complete bubble radius only when applicable</text>
<text x="30" y="505" class="muted">• dA: contacted surface patch</text>
<text x="30" y="529" class="muted">• π: full-sphere special case</text>
<text x="30" y="571" class="muted">PFC may occupy only a residual inclusion</text>
<text x="30" y="594" class="muted">Do not give every species the whole bubble area automatically</text>
</svg>
