<svg xmlns="http://www.w3.org/2000/svg" viewBox="0 0 980 592" role="img" aria-labelledby="title desc">
<title id="title">C2-E24 — The pressure responds to species masses, temperature, and changing volume.</title>
<desc id="desc">m_v,s, M_s: species mole inventory; T_b: common temperature; V_b: finite bubble volume; p_v,s: component pressure; p_b: total mixture pressure; R_u: gas constant; ρ_b, e_b, Y: real-mixture state; s = 1…N_s; P: EOS function; Permanent gas remains after condensable vapor is removed; Dense compression requires a calibrated EOS</desc>
<defs><marker id="arrow" markerWidth="8" markerHeight="8" refX="7" refY="4" orient="auto-start-reverse"><path d="M0 0 L8 4 L0 8Z" fill="#8edbd4"/></marker></defs>
<rect width="980" height="592" rx="8" fill="#142632"/>
<style>text{font-family:Arial,"Microsoft YaHei",sans-serif;fill:#e7f0f3;font-size:20px}.muted{fill:#b4c7d2;font-size:17px}.accent{fill:#8edbd4}.line{fill:none;stroke:#8edbd4;stroke-width:3}.thin{fill:none;stroke:#b4c7d2;stroke-width:2}.arrow{fill:none;stroke:#8edbd4;stroke-width:3;marker-end:url(#arrow)}.area{fill:#213e4b;stroke:#b4c7d2;stroke-width:2}</style>
<text x="28" y="36" class="accent">C2-E24 · Physical variable map / 物理变量图</text>
<circle cx="310" cy="185" r="78" class="area"/>
<path d="M310 185 H388" class="arrow"/>
<text x="337" y="169" class="">R(t)</text>
<path d="M310 185 L457 263" class="arrow"/>
<text x="398" y="226" class="">r ≥ R</text>
<text x="277" y="193" class="">pb</text>
<text x="610" y="166" class="">p∞ , ρ , μ , σ</text>
<text x="610" y="194" class="">Surrounding medium / 周围介质</text>
<path d="M310 78 L310 54" class="arrow"/>
<path d="M201 185 L167 185" class="arrow"/>
<path d="M419 185 L459 185" class="arrow"/>
<text x="100" y="312" class="">Signed wall motion / 有符号壁运动: Ṙ, R̈</text>
<text x="129" y="75" class="muted">+r direction / +r 方向</text>
<circle cx="295" cy="195" r="27" class="area"/>
<text x="590" y="244" class="muted">Liquid ↔ vapor / 液体 ↔ 蒸气</text>
<text x="590" y="271" class="">ml , mv , j , Q̇ , Tb</text>
<path d="M28 356 H952" stroke="#405967"/>
<text x="30" y="382" class="muted">Variables in this equation / 本式变量</text>
<text x="30" y="409" class="muted">• m_v,s, M_s: species mole inventory</text>
<text x="30" y="433" class="muted">• V_b: finite bubble volume</text>
<text x="30" y="457" class="muted">• p_b: total mixture pressure</text>
<text x="30" y="481" class="muted">• ρ_b, e_b, Y: real-mixture state</text>
<text x="508" y="409" class="muted">• T_b: common temperature</text>
<text x="508" y="433" class="muted">• p_v,s: component pressure</text>
<text x="508" y="457" class="muted">• R_u: gas constant</text>
<text x="508" y="481" class="muted">• s = 1…N_s; P: EOS function</text>
<text x="30" y="523" class="muted">Permanent gas remains after condensable vapor is removed</text>
<text x="30" y="546" class="muted">Dense compression requires a calibrated EOS</text>
</svg>
