<svg xmlns="http://www.w3.org/2000/svg" viewBox="0 0 980 687" role="img" aria-labelledby="title desc">
<title id="title">C3-E20 — The factor three follows from extensional stress, rather than ordinary shear drag.</title>
<desc id="desc">a(z,t), A jet section; r radial; z axial; u_r radial; v axial; τ_zz − τ_rr = 3μ ∂zv; κ surface curvature; σ_j, ρ, μ; ∂r, ∂z, ∂zz, ∂ₜ, t; Regular radial velocity vanishes at r = 0; Curvature gradients drive axial redistribution; Surrounding dense liquid requires a two-fluid treatment</desc>
<defs><marker id="arrow" markerWidth="8" markerHeight="8" refX="7" refY="4" orient="auto-start-reverse"><path d="M0 0 L8 4 L0 8Z" fill="#8edbd4"/></marker></defs>
<rect width="980" height="687" rx="8" fill="#142632"/>
<style>text{font-family:Arial,"Microsoft YaHei",sans-serif;fill:#e7f0f3;font-size:20px}.muted{fill:#b4c7d2;font-size:17px}.accent{fill:#8edbd4}.line{fill:none;stroke:#8edbd4;stroke-width:3}.thin{fill:none;stroke:#b4c7d2;stroke-width:2}.arrow{fill:none;stroke:#8edbd4;stroke-width:3;marker-end:url(#arrow)}.area{fill:#213e4b;stroke:#b4c7d2;stroke-width:2}</style>
<text x="28" y="36" class="accent">C3-E20 · Physical variable map / 物理变量图</text>
<rect x="88" y="146" width="535" height="78" class="area"/>
<path d="M110 202 H577" class="arrow"/>
<text x="282" y="127" class="">a , dj , Aj</text>
<text x="250" y="180" class="">Uj , mj , Pj , Ej</text>
<text x="268" y="261" class="">Finite liquid / 有限液体: Lj</text>
<path d="M672 177 H905" class="arrow"/>
<text x="720" y="147" class="">Flight gap / 飞行间隙: H</text>
<path d="M744 192 C770 220 794 138 821 177 S868 217 903 177" class="thin"/>
<text x="728" y="269" class="muted">δ(t), smax, κj</text>
<path d="M28 356 H952" stroke="#405967"/>
<text x="30" y="382" class="muted">Variables in this equation / 本式变量</text>
<text x="30" y="409" class="muted">• a(z,t), A jet section</text>
<text x="30" y="433" class="muted">• r radial; z axial</text>
<text x="30" y="457" class="muted">• u_r radial; v axial</text>
<text x="30" y="481" class="muted">• τ_zz − τ_rr = 3μ ∂zv</text>
<text x="30" y="505" class="muted">• κ surface curvature</text>
<text x="30" y="529" class="muted">• σ_j, ρ, μ</text>
<text x="30" y="553" class="muted">• ∂r, ∂z, ∂zz, ∂ₜ, t</text>
<text x="30" y="595" class="muted">Regular radial velocity vanishes at r = 0</text>
<text x="30" y="618" class="muted">Curvature gradients drive axial redistribution</text>
<text x="30" y="641" class="muted">Surrounding dense liquid requires a two-fluid treatment</text>
</svg>
